<svg width="135" height="30" viewBox="0 0 135 30" fill="none" xmlns="http://www.w3.org/2000/svg">
<g clip-path="url(#clip0_2_2)">
<path d="M22.096 7.28C22.096 8.56 22.544 9.616 23.44 10.448C24.336 11.248 25.68 12.16 27.472 13.184C28.784 13.92 29.824 14.56 30.592 15.104C31.36 15.648 32.016 16.336 32.56 17.168C33.104 18 33.376 18.96 33.376 20.048C33.376 22.032 32.576 23.6 30.976 24.752C29.408 25.872 27.296 26.432 24.64 26.432C22.368 26.432 20.528 26 19.12 25.136C17.744 24.272 17.056 23.104 17.056 21.632C17.056 20.672 17.376 19.92 18.016 19.376C18.688 18.8 19.52 18.512 20.512 18.512C21.28 18.512 22.016 18.704 22.72 19.088C21.728 19.6 21.232 20.608 21.232 22.112C21.232 23.008 21.552 23.776 22.192 24.416C22.864 25.024 23.76 25.328 24.88 25.328C26.032 25.328 26.928 25.008 27.568 24.368C28.24 23.728 28.576 22.928 28.576 21.968C28.576 20.848 28.16 19.936 27.328 19.232C26.528 18.496 25.296 17.648 23.632 16.688C22.32 15.984 21.232 15.328 20.368 14.72C19.536 14.112 18.832 13.36 18.256 12.464C17.68 11.568 17.392 10.512 17.392 9.296C17.392 7.472 18.16 6 19.696 4.88C21.264 3.728 23.296 3.152 25.792 3.152C27.936 3.152 29.68 3.568 31.024 4.4C32.368 5.2 33.04 6.272 33.04 7.616C33.04 8.48 32.752 9.168 32.176 9.68C31.6 10.16 30.816 10.4 29.824 10.4C29.12 10.4 28.384 10.224 27.616 9.872C28.032 9.552 28.352 9.152 28.576 8.672C28.8 8.192 28.912 7.696 28.912 7.184C28.912 6.384 28.624 5.712 28.048 5.168C27.472 4.592 26.624 4.304 25.504 4.304C24.416 4.304 23.568 4.592 22.96 5.168C22.384 5.744 22.096 6.448 22.096 7.28ZM45.4094 26.432C43.8734 26.432 42.6734 25.936 41.8094 24.944C40.9774 23.92 40.4014 22.288 40.0814 20.048L39.0734 13.136C39.0414 12.88 38.9774 12.704 38.8814 12.608C38.7854 12.512 38.6414 12.464 38.4494 12.464H37.1534L37.0094 11.936C37.6494 11.36 38.4174 10.912 39.3134 10.592C40.2094 10.24 41.0894 10.064 41.9534 10.064C42.4334 10.064 42.7694 10.208 42.9614 10.496C43.1854 10.784 43.3614 11.344 43.4894 12.176L44.7374 20.816C44.9614 22.384 45.2174 23.456 45.5054 24.032C45.7934 24.608 46.2254 24.896 46.8014 24.896C47.6974 24.896 48.4014 24.352 48.9134 23.264C49.4574 22.144 49.7294 20.672 49.7294 18.848C49.7294 16.992 49.4894 15.088 49.0094 13.136C48.9454 12.88 48.8814 12.704 48.8174 12.608C48.7534 12.512 48.6094 12.464 48.3854 12.464H47.1374L46.9934 11.936C47.6014 11.36 48.3534 10.912 49.2494 10.592C50.1454 10.24 51.0414 10.064 51.9374 10.064C52.3854 10.064 52.7214 10.224 52.9454 10.544C53.1694 10.832 53.3294 11.376 53.4254 12.176L54.6254 20.576C54.8814 22.304 55.1534 23.456 55.4414 24.032C55.7614 24.608 56.1454 24.896 56.5934 24.896C57.4574 24.896 58.1454 24.256 58.6574 22.976C59.2014 21.664 59.4734 19.968 59.4734 17.888C59.4734 16.48 59.3294 15.264 59.0414 14.24C58.7854 13.184 58.3534 12.256 57.7454 11.456L57.3614 10.928L57.6974 10.544L61.7294 10.064C61.8254 11.312 61.8734 12.416 61.8734 13.376C61.8734 17.472 61.2814 20.672 60.0974 22.976C58.9454 25.28 57.2814 26.432 55.1054 26.432C53.7934 26.432 52.8014 26.096 52.1294 25.424C51.4574 24.752 50.8974 23.52 50.4494 21.728C49.8094 24.864 48.1294 26.432 45.4094 26.432ZM72.7521 15.392C72.0801 15.776 71.2801 15.968 70.3521 15.968C69.6801 15.968 69.1521 15.776 68.7681 15.392C68.3841 14.976 68.1921 14.4 68.1921 13.664C68.1921 12.576 68.7201 11.712 69.7761 11.072C70.8641 10.4 72.2721 10.064 74.0001 10.064C76.0481 10.064 77.6481 10.512 78.8001 11.408C79.9841 12.304 80.5761 13.52 80.5761 15.056V23.36C80.5761 24.256 80.8961 24.704 81.5361 24.704C82.1441 24.704 82.7361 24.464 83.3121 23.984L83.6961 24.464C82.5121 25.776 81.1041 26.432 79.4721 26.432C78.5121 26.432 77.7761 26.192 77.2641 25.712C76.7841 25.232 76.4961 24.48 76.4001 23.456H76.2081C75.6961 24.384 75.0081 25.12 74.1441 25.664C73.3121 26.176 72.3521 26.432 71.2641 26.432C70.0481 26.432 69.0721 26.064 68.3361 25.328C67.6001 24.56 67.2321 23.568 67.2321 22.352C67.2321 20.976 67.8881 19.888 69.2001 19.088C70.5121 18.288 72.2881 17.888 74.5281 17.888C74.9441 17.888 75.5361 17.92 76.3041 17.984V15.584C76.3041 14.016 76.1121 12.896 75.7281 12.224C75.3441 11.52 74.7201 11.168 73.8561 11.168C73.2481 11.168 72.7681 11.36 72.4161 11.744C72.0641 12.128 71.8881 12.624 71.8881 13.232C71.8881 14.192 72.1761 14.912 72.7521 15.392ZM73.4721 24.032C75.3601 24.032 76.3041 22.32 76.3041 18.896C74.7041 18.896 73.5041 19.168 72.7041 19.712C71.9041 20.224 71.5041 20.96 71.5041 21.92C71.5041 22.56 71.6801 23.072 72.0321 23.456C72.3841 23.84 72.8641 24.032 73.4721 24.032ZM92.4914 26.432C91.1794 26.432 90.2354 26.144 89.6594 25.568C89.0834 24.96 88.7954 23.984 88.7954 22.64V12.464H86.3954C86.3954 11.92 86.4274 11.568 86.4914 11.408C86.5554 11.248 86.7474 11.12 87.0674 11.024C88.1234 10.736 88.9554 10.288 89.5634 9.68C90.1714 9.072 90.6674 8.192 91.0514 7.04C91.1474 6.688 91.3074 6.48 91.5314 6.416C91.7554 6.32 92.2994 6.272 93.1634 6.272V10.592H97.0994C97.0994 11.008 97.0354 11.392 96.9074 11.744C96.7794 12.064 96.6034 12.304 96.3794 12.464H93.1634V23.264C93.1634 24.224 93.5634 24.704 94.3634 24.704C94.7154 24.704 95.0994 24.592 95.5154 24.368C95.9634 24.144 96.3634 23.84 96.7154 23.456L97.0994 23.936C95.7234 25.6 94.1874 26.432 92.4914 26.432ZM107.002 23.264C107.002 24.224 107.306 24.704 107.914 24.704C108.522 24.704 109.114 24.464 109.69 23.984L110.074 24.464C108.89 25.776 107.498 26.432 105.898 26.432C104.746 26.432 103.914 26.144 103.402 25.568C102.89 24.96 102.634 23.984 102.634 22.64V13.136C102.634 12.688 102.426 12.464 102.01 12.464H100.522L100.378 11.936C101.018 11.392 101.818 10.944 102.778 10.592C103.738 10.24 104.698 10.064 105.658 10.064C106.042 10.064 106.362 10.16 106.618 10.352C106.874 10.544 107.002 10.8 107.002 11.12V23.264ZM102.154 5.456C102.154 4.88 102.474 4.24 103.114 3.536C103.754 2.832 104.346 2.48 104.89 2.48C105.466 2.48 106.074 2.832 106.714 3.536C107.386 4.24 107.722 4.88 107.722 5.456C107.722 6.064 107.386 6.72 106.714 7.424C106.074 8.096 105.466 8.432 104.89 8.432C104.346 8.432 103.754 8.096 103.114 7.424C102.474 6.72 102.154 6.064 102.154 5.456ZM113.478 23.696C113.478 23.152 113.782 22.56 114.39 21.92C114.998 21.248 115.558 20.912 116.07 20.912C116.582 20.912 117.142 21.248 117.75 21.92C118.39 22.56 118.71 23.152 118.71 23.696C118.71 24.24 118.39 24.832 117.75 25.472C117.142 26.112 116.582 26.432 116.07 26.432C115.558 26.432 114.998 26.112 114.39 25.472C113.782 24.832 113.478 24.24 113.478 23.696Z" fill="white"/>
</g>
<defs>
<clipPath id="clip0_2_2">
<rect width="135" height="30" fill="white"/>
</clipPath>
</defs>
</svg>
